<svg xmlns="http://www.w3.org/2000/svg" viewBox="0 0 500 66.48356"><path d="M10.508,66.48356H0L23.08434,0H33.448Z" style="fill:#3466a5"/><path d="M40.52177,66.48356h-10.508L53.09812,0H63.46179Z" style="fill:#497ec0"/><path d="M70.53555,66.48356h-10.508L83.1119,0H93.47557Z" style="fill:#6d99d1"/><path d="M91.75822,57.96711h34.3409v8.51645H91.75822Z" style="fill:#94b4dd"/><path d="M130.90667,53.77733V2.12888L141.14046.48043v17.308a21.28459,21.28459,0,0,1,2.64422-.65267,16.62193,16.62193,0,0,1,3.12512-.30912,19.33866,19.33866,0,0,1,7.31444,1.202,11.36714,11.36714,0,0,1,4.67068,3.39978,13.15327,13.15327,0,0,1,2.47244,5.22,29.03161,29.03161,0,0,1,.72111,6.73066V53.77733H151.85468V34.61556q0-4.94533-1.27044-7.00579-1.27159-2.06-4.70466-2.06044a13.12506,13.12506,0,0,0-2.57579.24068q-1.20247.24161-2.16333.51488V53.77733Z" style="fill:#3466a5"/><path d="M202.40494,17.65111q-3.099,10.441-6.47229,19.57423-3.37418,9.13513-7.36844,17.71954a40.21129,40.21129,0,0,1-2.8891,5.254,16.16965,16.16965,0,0,1-3.16468,3.57156,11.15115,11.15115,0,0,1-3.8858,2.06044,17.59571,17.59571,0,0,1-5.05474.65268,20.69865,20.69865,0,0,1-4.43746-.446,19.87539,19.87539,0,0,1-3.33507-.99624l1.78578-8.17288a17.44688,17.44688,0,0,0,2.81694.75509,15.83705,15.83705,0,0,0,2.6121.2067,5.7229,5.7229,0,0,0,4.2247-1.47667,11.8857,11.8857,0,0,0,2.50922-4.08737q-3.50616-6.86706-7.01-15.41842a191.92474,191.92474,0,0,1-6.59566-19.19668h10.852q.68851,2.67867,1.62144,5.80379.93014,3.12558,1.96595,6.31867,1.03347,3.19331,2.10327,6.21578,1.06909,3.02294,2.03577,5.49421.89522-2.472,1.86213-5.49421.96574-3.02154,1.89611-6.21578.93084-3.194,1.79323-6.31867.86171-3.12489,1.55208-5.80379Z" style="fill:#1f1f1f"/><path d="M241.41606,35.71422a26.47278,26.47278,0,0,1-1.03023,7.624,17.16768,17.16768,0,0,1-3.02223,5.90667,13.66261,13.66261,0,0,1-4.94488,3.84622,15.967,15.967,0,0,1-6.79956,1.37332,18.34007,18.34007,0,0,1-3.98356-.41246,19.07179,19.07179,0,0,1-3.57156-1.16755V66.48356H207.83025v-47.596q1.37355-.41268,3.15956-.79,1.78485-.37709,3.74335-.65268,1.95732-.27374,3.98355-.44644,2.02507-.17038,3.88021-.17179A22.18837,22.18837,0,0,1,230.564,18.166a16.3922,16.3922,0,0,1,5.90667,3.77779,16.20484,16.20484,0,0,1,3.67444,5.94112A22.839,22.839,0,0,1,241.41606,35.71422Zm-10.43956.27513a12.39042,12.39042,0,0,0-2.12934-7.58957,7.39144,7.39144,0,0,0-6.31867-2.85045q-1.37494,0-2.54134.10335-1.169.10264-1.92311.24021V44.368a8.87294,8.87294,0,0,0,2.50689,1.03069,12.07648,12.07648,0,0,0,3.12511.41153Q230.97511,45.81021,230.9765,35.98935Z" style="fill:#1f1f1f"/><path d="M247.59646,35.98935a22.08176,22.08176,0,0,1,1.47667-8.41356,18.03037,18.03037,0,0,1,3.88067-6.01,16.13183,16.13183,0,0,1,5.52912-3.64,17.3102,17.3102,0,0,1,6.42155-1.23646q7.69105,0,12.15691,4.70513,4.46352,4.70514,4.46445,13.83934c0,.59542-.02421,1.24809-.0689,1.9571q-.06983,1.0656-.1378,1.88913H258.10491a6.79268,6.79268,0,0,0,2.95334,5.01331,11.86582,11.86582,0,0,0,7.00532,1.85468,29.64243,29.64243,0,0,0,5.52866-.51488,20.80564,20.80564,0,0,0,4.43-1.2709l1.37425,8.31068a14.15779,14.15779,0,0,1-2.19824.824,28.76777,28.76777,0,0,1-3.05575.72064q-1.68429.31005-3.606.51581a36.23467,36.23467,0,0,1-3.84623.20577,22.754,22.754,0,0,1-8.482-1.44222,16.51551,16.51551,0,0,1-5.97557-3.94958,15.65887,15.65887,0,0,1-3.50313-5.94065A23.52771,23.52771,0,0,1,247.59646,35.98935Zm24.03867-3.91513a10.67879,10.67879,0,0,0-.446-2.54133,6.387,6.387,0,0,0-1.16755-2.19778,6.23432,6.23432,0,0,0-1.99248-1.57955,6.49055,6.49055,0,0,0-2.98778-.61823,6.882,6.882,0,0,0-2.95334.58378,6.12493,6.12493,0,0,0-2.06044,1.54557,6.91114,6.91114,0,0,0-1.27,2.23222,14.527,14.527,0,0,0-.65268,2.57532Z" style="fill:#1f1f1f"/><path d="M311.196,26.71688q-1.37424-.34286-3.228-.72111a20.02521,20.02521,0,0,0-3.984-.37754,18.55614,18.55614,0,0,0-2.30066.17178,13.536,13.536,0,0,0-2.026.37754V53.77733H289.424V19.57422a61.63413,61.63413,0,0,1,6.49045-1.82023,37.431,37.431,0,0,1,8.3442-.85844c.55026,0,1.21317.03445,1.99247.10289q1.16616.10333,2.33511.27466,1.16616.17248,2.33511.41246a11.06241,11.06241,0,0,1,1.99155.58378Z" style="fill:#1f1f1f"/><path d="M328.77919,46.42844a10.21093,10.21093,0,0,0,3.98309-.54933,2.1217,2.1217,0,0,0,1.16756-2.12888,2.60925,2.60925,0,0,0-1.51112-2.16332,28.74225,28.74225,0,0,0-4.60132-2.0949,46.54885,46.54885,0,0,1-4.3611-1.85468,12.79323,12.79323,0,0,1-3.33135-2.30066,9.30379,9.30379,0,0,1-2.12934-3.19355,11.80406,11.80406,0,0,1-.7551-4.46445,9.65441,9.65441,0,0,1,3.77733-8.036q3.7764-2.95171,10.37112-2.95334a33.33394,33.33394,0,0,1,6.3182.58378,29.5284,29.5284,0,0,1,4.808,1.2709l-1.78578,7.96712a37.79539,37.79539,0,0,0-3.88068-1.09912,21.13633,21.13633,0,0,0-4.70467-.48043q-4.80847,0-4.808,2.6782a2.75654,2.75654,0,0,0,.2067,1.09912,2.33513,2.33513,0,0,0,.824.92734,11.548,11.548,0,0,0,1.68243.96552q1.06421.52023,2.71312,1.142a42.05634,42.05634,0,0,1,5.56311,2.45847,13.28009,13.28009,0,0,1,3.46821,2.61676,8.07233,8.07233,0,0,1,1.78578,3.1186,13.82659,13.82659,0,0,1,.51581,3.97331,9.159,9.159,0,0,1-4.01847,8.08722q-4.018,2.74012-11.36643,2.74106a32.67476,32.67476,0,0,1-8.00156-.824,32.168,32.168,0,0,1-4.43-1.37425l1.71689-8.30974a33.489,33.489,0,0,0,5.35734,1.61353A25.9838,25.9838,0,0,0,328.77919,46.42844Z" style="fill:#3466a5"/><path d="M350.00093,35.71422a21.29281,21.29281,0,0,1,1.27-7.38334,17.28164,17.28164,0,0,1,9.51268-10.13044,19.27306,19.27306,0,0,1,7.82932-1.51112,25.26821,25.26821,0,0,1,5.28938.51535,25.82044,25.82044,0,0,1,4.67021,1.47666l-2.12934,8.17335a25.84847,25.84847,0,0,0-3.1591-.96179,16.52789,16.52789,0,0,0-3.84623-.412q-4.53334,0-6.76511,2.816A11.59188,11.59188,0,0,0,360.44,35.71422q0,4.87761,2.09489,7.55512,2.0949,2.67867,7.31444,2.67867a24.986,24.986,0,0,0,3.984-.34356,16.957,16.957,0,0,0,3.91419-1.09866l1.44315,8.37865a24.00275,24.00275,0,0,1-4.46445,1.30535,29.47989,29.47989,0,0,1-5.90667.54933,22.23294,22.23294,0,0,1-8.51645-1.47667,16.02547,16.02547,0,0,1-5.87222-4.01754,15.648,15.648,0,0,1-3.36579-6.01A25.48659,25.48659,0,0,1,350.00093,35.71422Z" style="fill:#1f1f1f"/><path d="M407.83025,26.71688q-1.37425-.34286-3.228-.72111a20.025,20.025,0,0,0-3.984-.37754,18.556,18.556,0,0,0-2.30066.17178,13.53614,13.53614,0,0,0-2.026.37754V53.77733H386.05825V19.57422a61.6332,61.6332,0,0,1,6.49044-1.82023,37.43108,37.43108,0,0,1,8.3442-.85844c.55026,0,1.21318.03445,1.99248.10289q1.16616.10333,2.33511.27466,1.16614.17248,2.3351.41246a11.06241,11.06241,0,0,1,1.99155.58378Z" style="fill:#1f1f1f"/><path d="M426.23738,7.21156a5.61872,5.61872,0,0,1-1.82023,4.43,6.51549,6.51549,0,0,1-8.58534,0,5.61268,5.61268,0,0,1-1.82023-4.43,5.61532,5.61532,0,0,1,1.82023-4.43,6.51549,6.51549,0,0,1,8.58534,0A5.62137,5.62137,0,0,1,426.23738,7.21156Zm-.96179,46.56577H415.04227V17.65111h10.23332Z" style="fill:#1f1f1f"/><path d="M468.4751,35.71422a26.45643,26.45643,0,0,1-1.03068,7.624,17.16637,17.16637,0,0,1-3.02131,5.90667,13.66584,13.66584,0,0,1-4.94581,3.84622,15.96552,15.96552,0,0,1-6.79956,1.37332,18.345,18.345,0,0,1-3.98309-.41246,19.08278,19.08278,0,0,1-3.57156-1.16755V66.48356H434.88976v-47.596q1.37286-.41268,3.1591-.79,1.78485-.37709,3.74288-.65268,1.958-.27374,3.984-.44644,2.02508-.17038,3.88068-.17179a22.19012,22.19012,0,0,1,7.96711,1.33934,16.3922,16.3922,0,0,1,5.90667,3.77779,16.21012,16.21012,0,0,1,3.674,5.94112A22.828,22.828,0,0,1,468.4751,35.71422Zm-10.44.27513a12.38733,12.38733,0,0,0-2.12934-7.58957,7.38939,7.38939,0,0,0-6.3182-2.85045q-1.37425,0-2.54181.10335-1.16755.10264-1.92264.24021V44.368a8.87049,8.87049,0,0,0,2.50735,1.03069,12.0704,12.0704,0,0,0,3.12465.41153Q458.03416,45.81021,458.03508,35.98935Z" style="fill:#1f1f1f"/><path d="M476.02976,8.65377l10.23332-1.64844V17.65111h12.2947v8.51644h-12.2947V38.87378a10.10521,10.10521,0,0,0,1.13311,5.15065q1.134,1.92451,4.5678,1.92358a19.57769,19.57769,0,0,0,3.39931-.30911,17.47269,17.47269,0,0,0,3.19448-.85844L500,52.74757a29.10176,29.10176,0,0,1-4.12089,1.30442,24.04,24.04,0,0,1-5.564.54933,18.29705,18.29705,0,0,1-6.93642-1.13311,10.86737,10.86737,0,0,1-4.39556-3.1591,11.74728,11.74728,0,0,1-2.30066-4.91043,28.94584,28.94584,0,0,1-.65267-6.38756Z" style="fill:#1f1f1f"/></svg>